<svg xmlns="http://www.w3.org/2000/svg" xmlns:xlink="http://www.w3.org/1999/xlink" id="Calque_1" x="0px" y="0px" viewBox="0 0 262.8 68.4" style="enable-background:new 0 0 262.8 68.4;" xml:space="preserve"><style type="text/css">	.st0{fill:#312C64;}	.st1{fill:#FFFFFF;}	.st2{fill:#008FD0;}	.st3{opacity:0.92;}	.st4{fill:#F2F9FF;}	.st5{fill:#008FD0;stroke:#008FD0;stroke-width:0.3456;}</style><g>	<rect x="70.6" y="43.3" class="st0" width="95.4" height="18.9"></rect>	<g>		<g>			<g>				<g>					<path class="st1" d="M74.8,47.2h2.6v9.2h3.7v2h-6.4V47.2H74.8z"></path>					<path class="st1" d="M89.1,49.5c-0.6-0.3-1.5-0.6-2.2-0.6c-0.9,0-1.5,0.4-1.5,1.2c0,2,4.4,1.1,4.4,5.1c0,2.1-1.7,3.4-3.9,3.4      c-1.4,0-2.5-0.3-3-0.5L83,56c0.8,0.3,1.5,0.7,2.5,0.7c0.8,0,1.6-0.4,1.6-1.3c0-2.2-4.4-1.1-4.4-5.1c0-0.3,0.1-3.2,3.9-3.2      c1,0,1.7,0.2,2.6,0.4L89.1,49.5z"></path>					<path class="st1" d="M92.1,47.2h2.6v11.3h-2.6V47.2z"></path>				</g>			</g>		</g>	</g>	<g>		<rect x="6.1" y="7.4" class="st0" width="56.2" height="54.6"></rect>		<rect x="29.6" y="30.1" class="st2" width="32.7" height="31.8"></rect>		<g class="st3">			<path class="st4" d="M38.3,7.4c0,0.4,0,0.9,0,1.1c0,16.6-13.9,30.1-30.9,30.1c-0.3,0-0.8,0-1.3,0v13.3c0.5,0,1,0,1.3,0    C32,51.9,52,32.4,52,8.5c0-0.3,0-0.8,0-1.1H38.3z"></path>		</g>		<g>			<path class="st1" d="M62.3,17.4c-0.6,0-1.2,0-1.5,0c-24.6,0-44.6,19.5-44.6,43.4c0,0.2,0,0.7,0,1.2h13.7c0-0.5,0-1,0-1.2    c0-16.6,13.9-30.1,30.9-30.1c0.3,0,0.9,0,1.5,0C62.3,30.7,62.3,17.4,62.3,17.4z"></path>		</g>	</g>	<g>		<g>			<path class="st5" d="M84.1,26.1L83,26.9c-0.6-0.8-1.3-1.4-2.2-1.8c-0.9-0.4-1.8-0.6-2.8-0.6c-1.1,0-2.2,0.3-3.1,0.8    c-1,0.5-1.7,1.2-2.2,2.1s-0.8,1.9-0.8,3c0,1.7,0.6,3.1,1.8,4.2c1.2,1.1,2.7,1.7,4.4,1.7c2,0,3.6-0.7,4.9-2.2l1.1,0.8    c-0.7,0.9-1.6,1.5-2.6,2s-2.2,0.7-3.5,0.7c-2.5,0-4.4-0.8-5.8-2.4c-1.2-1.3-1.8-3-1.8-4.9c0-2,0.7-3.7,2.2-5c1.4-1.4,3.3-2,5.4-2    c1.3,0,2.5,0.3,3.6,0.8C82.5,24.5,83.4,25.2,84.1,26.1z"></path>			<path class="st5" d="M94.7,23.6l6.6,13.7h-1.5l-2.2-4.5h-6.1l-2.2,4.5h-1.6l6.6-13.7C94.3,23.6,94.7,23.6,94.7,23.6z M94.5,26.5    l-2.4,4.9h4.8L94.5,26.5z"></path>			<path class="st5" d="M106.2,23.6h2.8c1.6,0,2.6,0.1,3.2,0.2c0.8,0.2,1.5,0.6,2,1.2s0.8,1.4,0.8,2.3c0,0.7-0.2,1.4-0.5,2    c-0.4,0.6-0.9,1-1.5,1.3c-0.7,0.3-1.6,0.4-2.8,0.4l5.1,6.3h-1.7l-5.1-6.3h-0.8v6.3h-1.4L106.2,23.6L106.2,23.6z M107.6,24.9v4.6    h2.4c0.9,0,1.6-0.1,2.1-0.3c0.4-0.2,0.8-0.5,1.1-0.8c0.3-0.4,0.4-0.8,0.4-1.3s-0.1-0.9-0.4-1.2c-0.3-0.4-0.6-0.6-1-0.8    c-0.4-0.2-1.1-0.2-2.1-0.2C110.1,24.9,107.6,24.9,107.6,24.9z"></path>			<path class="st5" d="M121.9,37.2V23.6h0.3l9.4,10.5V23.6h1.4v13.7h-0.3L123.4,27v10.3L121.9,37.2L121.9,37.2z"></path>			<path class="st5" d="M146.8,23.2c2.1,0,3.9,0.7,5.3,2.1c1.4,1.4,2.2,3.1,2.2,5.1s-0.7,3.7-2.1,5.1c-1.4,1.4-3.2,2.1-5.2,2.1    c-2.1,0-3.8-0.7-5.3-2.1c-1.4-1.4-2.2-3.1-2.2-5c0-1.3,0.3-2.5,1-3.7c0.7-1.1,1.5-2,2.7-2.6C144.3,23.5,145.5,23.2,146.8,23.2z     M146.9,24.5c-1,0-2,0.3-3,0.8c-0.9,0.5-1.7,1.2-2.2,2.1s-0.8,1.9-0.8,3c0,1.6,0.6,3,1.7,4.1c1.2,1.1,2.6,1.7,4.2,1.7    c1.1,0,2.1-0.3,3-0.8s1.7-1.2,2.2-2.1c0.5-0.9,0.8-1.9,0.8-3s-0.3-2.1-0.8-2.9c-0.5-0.9-1.3-1.6-2.2-2.1    C149,24.8,148,24.5,146.9,24.5z"></path>			<path class="st5" d="M159.1,24.9v-1.3h7.7v1.3h-3.1v12.3h-1.4V24.9H159.1z"></path>		</g>	</g>	<g>		<path class="st5" d="M72.2,7.2h1.2v12h-1.2V7.2z"></path>		<path class="st5" d="M81.1,19.2v-12h0.3l8.2,9.2V7.2h1.2v12h-0.3l-8.1-9.1v9.1H81.1z"></path>		<path class="st5" d="M97.3,17l1-0.6c0.7,1.3,1.6,2,2.6,2c0.4,0,0.8-0.1,1.2-0.3c0.4-0.2,0.6-0.4,0.8-0.8c0.2-0.3,0.3-0.6,0.3-1   c0-0.4-0.1-0.8-0.4-1.2c-0.4-0.5-1.1-1.2-2.1-1.9c-1-0.8-1.7-1.3-1.9-1.6c-0.4-0.6-0.7-1.2-0.7-1.8c0-0.5,0.1-1,0.4-1.4   c0.3-0.4,0.6-0.8,1.1-1s1-0.4,1.5-0.4c0.6,0,1.1,0.1,1.6,0.4s1,0.8,1.6,1.5l-1,0.7c-0.5-0.6-0.9-1-1.2-1.2   c-0.3-0.2-0.7-0.3-1.1-0.3c-0.5,0-0.9,0.1-1.2,0.4c-0.3,0.3-0.5,0.7-0.5,1.1c0,0.3,0.1,0.5,0.2,0.8c0.1,0.2,0.3,0.5,0.6,0.8   c0.2,0.2,0.7,0.5,1.6,1.2c1.1,0.8,1.8,1.4,2.2,2c0.4,0.6,0.6,1.2,0.6,1.8c0,0.9-0.3,1.6-1,2.3c-0.7,0.6-1.5,1-2.5,1   c-0.7,0-1.4-0.2-2-0.6S97.8,17.9,97.3,17z"></path>		<path class="st5" d="M110.8,8.4V7.2h6.7v1.2h-2.7v10.8h-1.3V8.4H110.8z"></path>		<path class="st5" d="M123.9,7.2h1.2v12h-1.2V7.2z"></path>		<path class="st5" d="M131.6,8.4V7.2h6.7v1.2h-2.7v10.8h-1.3V8.4H131.6z"></path>		<path class="st5" d="M145,7.2h1.2v7.2c0,0.9,0,1.4,0.1,1.6c0.1,0.5,0.2,0.9,0.4,1.2c0.2,0.3,0.6,0.6,1,0.8   c0.5,0.2,0.9,0.3,1.4,0.3c0.4,0,0.8-0.1,1.2-0.3c0.4-0.2,0.7-0.4,0.9-0.7c0.3-0.3,0.4-0.7,0.6-1.1c0.1-0.3,0.1-0.9,0.1-1.9V7.2   h1.2v7.2c0,1.1-0.1,1.9-0.3,2.6s-0.6,1.2-1.3,1.7c-0.6,0.5-1.4,0.7-2.3,0.7c-1,0-1.8-0.2-2.6-0.7c-0.7-0.5-1.2-1.1-1.4-1.8   c-0.2-0.5-0.2-1.3-0.2-2.5L145,7.2L145,7.2z"></path>		<path class="st5" d="M159.8,8.4V7.2h6.7v1.2h-2.7v10.8h-1.3V8.4H159.8z"></path>	</g></g><rect x="175" y="7" class="st0" width="0.5" height="55.2"></rect><g>	<path class="st0" d="M183.8,14.4c0-0.6,0.4-1,1-1s1,0.4,1,1v6.4h3.7c0.5,0,0.9,0.4,0.9,0.9s-0.4,0.9-0.9,0.9h-4.8c-0.6,0-1-0.4-1-1  v-7.2H183.8z"></path>	<path class="st0" d="M191.3,19.2L191.3,19.2c0-2,1.6-3.7,3.8-3.7s3.8,1.6,3.8,3.6l0,0c0,2-1.6,3.7-3.8,3.7  C192.9,22.8,191.3,21.2,191.3,19.2z M197,19.2L197,19.2c0-1.1-0.7-2-1.9-2c-1.1,0-1.8,0.9-1.8,1.9l0,0c0,1,0.7,1.9,1.9,1.9  C196.3,21.1,197,20.2,197,19.2z"></path>	<path class="st0" d="M201,24.3c-0.3-0.1-0.6-0.4-0.6-0.8s0.4-0.8,0.8-0.8c0.1,0,0.2,0,0.3,0.1c0.6,0.3,1.2,0.4,1.9,0.4  c1.4,0,2-0.7,2-1.9V21c-0.6,0.7-1.2,1.1-2.3,1.1c-1.6,0-3.1-1.2-3.1-3.3l0,0c0-2.1,1.5-3.3,3.1-3.3c1.1,0,1.7,0.5,2.3,1.1l0,0  c0-0.5,0.4-1,1-1s1,0.4,1,1V21c0,1.3-0.3,2.2-0.9,2.8c-0.7,0.7-1.7,0.9-3,0.9C202.6,24.8,201.8,24.6,201,24.3z M205.5,18.8  L205.5,18.8c0-1-0.7-1.7-1.7-1.7s-1.7,0.7-1.7,1.6l0,0c0,1,0.7,1.6,1.7,1.6C204.7,20.4,205.5,19.7,205.5,18.8z"></path>	<path class="st0" d="M209.2,13.9c0-0.6,0.5-0.9,1.1-0.9s1.1,0.4,1.1,0.9l0,0c0,0.6-0.5,0.9-1.1,0.9  C209.7,14.9,209.2,14.5,209.2,13.9L209.2,13.9z M209.3,16.5c0-0.6,0.4-1,1-1s1,0.4,1,1v5.2c0,0.6-0.4,1-1,1s-1-0.4-1-1V16.5z"></path>	<path class="st0" d="M212.9,19.2L212.9,19.2c0-2,1.5-3.7,3.7-3.7c1.1,0,1.8,0.3,2.4,0.8c0.1,0.1,0.3,0.3,0.3,0.7  c0,0.5-0.4,0.9-0.9,0.9c-0.3,0-0.5-0.1-0.6-0.2c-0.4-0.3-0.7-0.4-1.2-0.4c-1,0-1.7,0.9-1.7,1.9l0,0c0,1.1,0.7,1.9,1.8,1.9  c0.5,0,0.9-0.2,1.3-0.5c0.1-0.1,0.3-0.2,0.5-0.2c0.5,0,0.8,0.4,0.8,0.9c0,0.3-0.1,0.5-0.3,0.6c-0.6,0.5-1.3,0.9-2.5,0.9  C214.4,22.8,212.9,21.2,212.9,19.2z"></path>	<path class="st0" d="M220.7,13.9c0-0.6,0.5-0.9,1.1-0.9s1.1,0.4,1.1,0.9l0,0c0,0.6-0.5,0.9-1.1,0.9  C221.2,14.9,220.7,14.5,220.7,13.9L220.7,13.9z M220.8,16.5c0-0.6,0.4-1,1-1s1,0.4,1,1v5.2c0,0.6-0.4,1-1,1s-1-0.4-1-1V16.5z"></path>	<path class="st0" d="M228,22.8c-2.1,0-3.7-1.5-3.7-3.6l0,0c0-2,1.4-3.7,3.5-3.7c2.4,0,3.4,1.9,3.4,3.4c0,0.6-0.4,1-0.9,1h-4  c0.2,0.9,0.8,1.4,1.7,1.4c0.6,0,1-0.2,1.4-0.5c0.1-0.1,0.3-0.2,0.5-0.2c0.4,0,0.8,0.3,0.8,0.8c0,0.3-0.1,0.5-0.3,0.6  C229.9,22.5,229.1,22.8,228,22.8z M229.3,18.6c-0.1-0.9-0.6-1.5-1.5-1.5c-0.8,0-1.4,0.6-1.5,1.5H229.3z"></path>	<path class="st0" d="M232.8,14c0-0.6,0.4-1,1-1s1,0.4,1,1v7.8c0,0.6-0.4,1-1,1s-1-0.4-1-1V14z"></path>	<path class="st0" d="M236.5,22c-0.2-0.1-0.4-0.4-0.4-0.7c0-0.4,0.3-0.8,0.8-0.8c0.1,0,0.3,0,0.4,0.1c0.7,0.4,1.3,0.6,1.9,0.6  c0.6,0,0.8-0.2,0.8-0.5l0,0c0-0.4-0.7-0.6-1.5-0.8c-1-0.3-2.1-0.7-2.1-2.1l0,0c0-1.4,1.2-2.2,2.6-2.2c0.7,0,1.5,0.2,2.2,0.5  c0.3,0.1,0.5,0.4,0.5,0.7c0,0.4-0.4,0.8-0.8,0.8c-0.1,0-0.2,0-0.4-0.1c-0.6-0.3-1.1-0.4-1.5-0.4c-0.5,0-0.7,0.2-0.7,0.5l0,0  c0,0.4,0.7,0.6,1.4,0.8c1,0.3,2.1,0.8,2.1,2.1l0,0c0,1.6-1.2,2.3-2.7,2.3C238.3,22.8,237.4,22.5,236.5,22z"></path>	<path class="st0" d="M253.4,22.5l-0.8-0.8c-0.7,0.6-1.6,1.1-2.7,1.1c-1.8,0-3.1-1-3.1-2.7l0,0c0-1.2,0.6-2,1.8-2.5  c-0.5-0.6-0.6-1.2-0.6-1.8l0,0c0-1.3,1-2.4,2.8-2.4c1.6,0,2.6,1,2.6,2.3l0,0c0,1.2-0.8,2-1.9,2.4l1.2,1.2c0.2-0.3,0.4-0.6,0.6-1  c0.1-0.2,0.4-0.5,0.7-0.5c0.5,0,0.8,0.4,0.8,0.8c0,0.1,0,0.3-0.1,0.4c-0.3,0.5-0.6,0.9-0.9,1.4l0.8,0.8c0.2,0.2,0.3,0.4,0.3,0.7  c0,0.5-0.4,0.9-0.9,0.9C253.8,22.8,253.6,22.7,253.4,22.5z M251.5,20.6l-1.8-1.8c-0.6,0.3-0.9,0.8-0.9,1.2l0,0  c0,0.6,0.5,1.1,1.3,1.1C250.6,21.1,251,20.9,251.5,20.6z M251.6,15.7L251.6,15.7c0-0.6-0.4-0.9-0.9-0.9s-0.9,0.4-0.9,0.9l0,0  c0,0.4,0.2,0.7,0.5,1.1C251.1,16.7,251.6,16.3,251.6,15.7z"></path></g><g>	<path class="st0" d="M183.7,37.8c-0.2-0.2-0.4-0.4-0.4-0.8c0-0.5,0.4-0.9,0.9-0.9c0.3,0,0.4,0.1,0.6,0.2c0.7,0.5,1.5,0.8,2.4,0.8  c0.8,0,1.3-0.3,1.3-0.9l0,0c0-0.5-0.3-0.8-1.9-1.2c-1.9-0.5-3-1-3-2.8l0,0c0-1.7,1.3-2.8,3.2-2.8c1.1,0,2.1,0.3,2.9,0.8  c0.2,0.1,0.4,0.4,0.4,0.8c0,0.5-0.4,0.9-0.9,0.9c-0.2,0-0.4-0.1-0.5-0.1c-0.7-0.4-1.3-0.6-1.9-0.6c-0.8,0-1.2,0.4-1.2,0.8l0,0  c0,0.6,0.4,0.8,2,1.2c1.9,0.5,2.9,1.2,2.9,2.8l0,0c0,1.8-1.4,2.9-3.4,2.9C185.9,38.9,184.7,38.6,183.7,37.8z"></path>	<path class="st0" d="M192.2,40.8c-0.3-0.1-0.6-0.3-0.6-0.8s0.4-0.8,0.8-0.8c0.2,0,0.2,0,0.3,0.1c0.2,0.1,0.3,0.1,0.4,0.1  c0.4,0,0.5-0.1,0.7-0.4l0.1-0.2l-2.4-5.6c-0.1-0.1-0.1-0.3-0.1-0.5c0-0.6,0.4-1,1-1c0.5,0,0.8,0.3,1,0.7l1.5,4.1l1.5-4.1  c0.2-0.4,0.4-0.8,1-0.8c0.5,0,0.9,0.4,0.9,0.9c0,0.2-0.1,0.4-0.1,0.5l-2.5,5.9c-0.6,1.4-1.2,2-2.4,2  C192.9,41,192.6,40.9,192.2,40.8z"></path>	<path class="st0" d="M199.2,38.1c-0.2-0.1-0.4-0.4-0.4-0.7c0-0.4,0.3-0.8,0.8-0.8c0.1,0,0.3,0,0.4,0.1c0.7,0.4,1.3,0.6,1.9,0.6  c0.6,0,0.8-0.2,0.8-0.5l0,0c0-0.4-0.7-0.6-1.5-0.8c-1-0.3-2.1-0.7-2.1-2.1l0,0c0-1.4,1.2-2.2,2.6-2.2c0.7,0,1.5,0.2,2.2,0.5  c0.3,0.1,0.5,0.4,0.5,0.7c0,0.4-0.4,0.8-0.8,0.8c-0.1,0-0.2,0-0.4-0.1c-0.6-0.3-1.1-0.4-1.5-0.4c-0.5,0-0.7,0.2-0.7,0.5l0,0  c0,0.4,0.7,0.6,1.4,0.8c1,0.3,2.1,0.8,2.1,2.1l0,0c0,1.6-1.2,2.3-2.7,2.3C201,38.9,200.1,38.7,199.2,38.1z"></path>	<path class="st0" d="M206.2,36.8v-3.3h-0.1c-0.5,0-0.9-0.4-0.9-0.9s0.4-0.9,0.9-0.9h0.1v-0.9c0-0.6,0.4-1,1-1s1,0.4,1,1v0.9h0.9  c0.5,0,0.9,0.4,0.9,0.9s-0.4,0.9-0.9,0.9h-0.9v3c0,0.5,0.2,0.7,0.6,0.7c0.1,0,0.2,0,0.2,0c0.4,0,0.8,0.4,0.8,0.8  c0,0.4-0.2,0.6-0.5,0.7c-0.4,0.1-0.7,0.2-1.1,0.2C207.1,38.9,206.2,38.4,206.2,36.8z"></path>	<path class="st0" d="M214.5,39c-2.1,0-3.7-1.5-3.7-3.6l0,0c0-2,1.4-3.7,3.5-3.7c2.4,0,3.4,1.9,3.4,3.4c0,0.6-0.4,1-0.9,1h-4  c0.2,0.9,0.8,1.4,1.7,1.4c0.6,0,1-0.2,1.4-0.5c0.1-0.1,0.3-0.2,0.5-0.2c0.4,0,0.8,0.3,0.8,0.8c0,0.3-0.1,0.5-0.3,0.6  C216.3,38.6,215.5,39,214.5,39z M213.2,30.6l-0.8-0.8c-0.2-0.1-0.3-0.3-0.3-0.5c0-0.3,0.6-0.6,1.1-0.6c0.3,0,0.6,0.2,0.7,0.4  l0.7,1.1c0.1,0.1,0.1,0.2,0.1,0.4c0,0.2-0.2,0.3-0.5,0.3C213.9,31.1,213.5,31,213.2,30.6z M215.8,34.7c-0.1-0.9-0.6-1.5-1.5-1.5  c-0.8,0-1.4,0.6-1.5,1.5H215.8z"></path>	<path class="st0" d="M219.2,32.7c0-0.6,0.4-1,1-1s1,0.4,1,1v0.1c0.5-0.6,1.1-1.1,2.1-1.1c0.9,0,1.6,0.4,2,1.1  c0.6-0.7,1.4-1.1,2.3-1.1c1.5,0,2.4,0.9,2.4,2.6V38c0,0.6-0.4,1-1,1s-1-0.4-1-1v-3c0-0.9-0.4-1.4-1.2-1.4s-1.2,0.5-1.2,1.4v3  c0,0.6-0.4,1-1,1s-1-0.4-1-1v-3c0-0.9-0.4-1.4-1.2-1.4c-0.7,0-1.2,0.5-1.2,1.4v3c0,0.6-0.4,1-1,1s-1-0.4-1-1L219.2,32.7L219.2,32.7  z"></path>	<path class="st0" d="M235,39c-2.1,0-3.7-1.5-3.7-3.6l0,0c0-2,1.4-3.7,3.5-3.7c2.4,0,3.4,1.9,3.4,3.4c0,0.6-0.4,1-0.9,1h-4  c0.2,0.9,0.8,1.4,1.7,1.4c0.6,0,1-0.2,1.4-0.5c0.1-0.1,0.3-0.2,0.5-0.2c0.4,0,0.8,0.3,0.8,0.8c0,0.3-0.1,0.5-0.3,0.6  C236.9,38.6,236.1,39,235,39z M236.3,34.7c-0.1-0.9-0.6-1.5-1.5-1.5c-0.8,0-1.4,0.6-1.5,1.5H236.3z"></path>	<path class="st0" d="M239.6,38.1c-0.2-0.1-0.4-0.4-0.4-0.7c0-0.4,0.3-0.8,0.8-0.8c0.1,0,0.3,0,0.4,0.1c0.7,0.4,1.3,0.6,1.9,0.6  c0.6,0,0.8-0.2,0.8-0.5l0,0c0-0.4-0.7-0.6-1.5-0.8c-1-0.3-2.1-0.7-2.1-2.1l0,0c0-1.4,1.2-2.2,2.6-2.2c0.7,0,1.5,0.2,2.2,0.5  c0.3,0.1,0.5,0.4,0.5,0.7c0,0.4-0.4,0.8-0.8,0.8c-0.1,0-0.2,0-0.4-0.1c-0.6-0.3-1.1-0.4-1.5-0.4c-0.5,0-0.7,0.2-0.7,0.5l0,0  c0,0.4,0.7,0.6,1.4,0.8c1,0.3,2.1,0.8,2.1,2.1l0,0c0,1.6-1.2,2.3-2.7,2.3C241.4,38.9,240.4,38.7,239.6,38.1z"></path></g><g>	<path class="st0" d="M183.9,46.7c0-0.6,0.4-1,1-1s1,0.4,1,1V54c0,0.6-0.4,1-1,1s-1-0.4-1-1V46.7z"></path>	<path class="st0" d="M188.1,48.9c0-0.6,0.4-1,1-1s1,0.4,1,1V49c0.5-0.6,1.1-1.1,2.1-1.1c1.5,0,2.4,1,2.4,2.6v3.6c0,0.6-0.4,1-1,1  s-1-0.4-1-1v-3c0-0.9-0.4-1.4-1.2-1.4s-1.2,0.5-1.2,1.4v3c0,0.6-0.4,1-1,1s-1-0.4-1-1v-5.2H188.1z"></path>	<path class="st0" d="M196.6,53v-3.3h-0.1c-0.5,0-0.9-0.4-0.9-0.9s0.4-0.9,0.9-0.9h0.1V47c0-0.6,0.4-1,1-1s1,0.4,1,1v0.9h0.9  c0.5,0,0.9,0.4,0.9,0.9s-0.4,0.9-0.9,0.9h-0.9v3c0,0.5,0.2,0.7,0.6,0.7c0.1,0,0.2,0,0.2,0c0.4,0,0.8,0.4,0.8,0.8  c0,0.4-0.2,0.6-0.5,0.7c-0.4,0.1-0.7,0.2-1.1,0.2C197.4,55.1,196.6,54.6,196.6,53z"></path>	<path class="st0" d="M204.8,55.1c-2.1,0-3.7-1.5-3.7-3.6l0,0c0-2,1.4-3.7,3.5-3.7c2.4,0,3.4,1.9,3.4,3.4c0,0.6-0.4,1-0.9,1h-4  c0.2,0.9,0.8,1.4,1.7,1.4c0.6,0,1-0.2,1.4-0.5c0.1-0.1,0.3-0.2,0.5-0.2c0.4,0,0.8,0.3,0.8,0.8c0,0.3-0.1,0.5-0.3,0.6  C206.7,54.8,205.9,55.1,204.8,55.1z M206.1,50.9c-0.1-0.9-0.6-1.5-1.5-1.5c-0.8,0-1.4,0.6-1.5,1.5H206.1z"></path>	<path class="st0" d="M209.6,46.3c0-0.6,0.4-1,1-1s1,0.4,1,1v7.8c0,0.6-0.4,1-1,1s-1-0.4-1-1V46.3z"></path>	<path class="st0" d="M213.6,46.3c0-0.6,0.4-1,1-1s1,0.4,1,1v7.8c0,0.6-0.4,1-1,1s-1-0.4-1-1V46.3z"></path>	<path class="st0" d="M217.5,46.3c0-0.6,0.5-0.9,1.1-0.9s1.1,0.4,1.1,0.9l0,0c0,0.6-0.5,0.9-1.1,0.9  C217.9,47.2,217.5,46.9,217.5,46.3L217.5,46.3z M217.6,48.9c0-0.6,0.4-1,1-1s1,0.4,1,1v5.2c0,0.6-0.4,1-1,1s-1-0.4-1-1V48.9z"></path>	<path class="st0" d="M222,56.6c-0.3-0.1-0.6-0.4-0.6-0.8c0-0.4,0.4-0.8,0.8-0.8c0.1,0,0.2,0,0.3,0.1c0.6,0.3,1.2,0.4,1.9,0.4  c1.4,0,2-0.7,2-1.9v-0.3c-0.6,0.7-1.2,1.1-2.3,1.1c-1.6,0-3.1-1.2-3.1-3.3l0,0c0-2.1,1.5-3.3,3.1-3.3c1.1,0,1.7,0.5,2.3,1.1l0,0  c0-0.5,0.4-1,1-1s1,0.4,1,1v4.5c0,1.3-0.3,2.2-0.9,2.8c-0.7,0.7-1.7,0.9-3,0.9C223.7,57.1,222.9,57,222,56.6z M226.6,51.1  L226.6,51.1c0-1-0.7-1.7-1.7-1.7s-1.7,0.7-1.7,1.6l0,0c0,1,0.7,1.6,1.7,1.6C225.8,52.8,226.6,52.1,226.6,51.1z"></path>	<path class="st0" d="M233.7,55.1c-2.1,0-3.7-1.5-3.7-3.6l0,0c0-2,1.4-3.7,3.5-3.7c2.4,0,3.4,1.9,3.4,3.4c0,0.6-0.4,1-0.9,1h-4  c0.2,0.9,0.8,1.4,1.7,1.4c0.6,0,1-0.2,1.4-0.5c0.1-0.1,0.3-0.2,0.5-0.2c0.4,0,0.8,0.3,0.8,0.8c0,0.3-0.1,0.5-0.3,0.6  C235.5,54.8,234.7,55.1,233.7,55.1z M235,50.9c-0.1-0.9-0.6-1.5-1.5-1.5c-0.8,0-1.4,0.6-1.5,1.5H235z"></path>	<path class="st0" d="M238.4,48.9c0-0.6,0.4-1,1-1s1,0.4,1,1V49c0.5-0.6,1.1-1.1,2.1-1.1c1.5,0,2.4,1,2.4,2.6v3.6c0,0.6-0.4,1-1,1  s-1-0.4-1-1v-3c0-0.9-0.4-1.4-1.2-1.4s-1.2,0.5-1.2,1.4v3c0,0.6-0.4,1-1,1s-1-0.4-1-1v-5.2H238.4z"></path>	<path class="st0" d="M246.9,53v-3.3h-0.1c-0.5,0-0.9-0.4-0.9-0.9s0.4-0.9,0.9-0.9h0.1V47c0-0.6,0.4-1,1-1s1,0.4,1,1v0.9h0.9  c0.5,0,0.9,0.4,0.9,0.9s-0.4,0.9-0.9,0.9h-0.9v3c0,0.5,0.2,0.7,0.6,0.7c0.1,0,0.2,0,0.2,0c0.4,0,0.8,0.4,0.8,0.8  c0,0.4-0.2,0.6-0.5,0.7c-0.4,0.1-0.7,0.2-1.1,0.2C247.7,55.1,246.9,54.6,246.9,53z"></path>	<path class="st0" d="M251.8,54.3c-0.2-0.1-0.4-0.4-0.4-0.7c0-0.4,0.3-0.8,0.8-0.8c0.1,0,0.3,0,0.4,0.1c0.7,0.4,1.3,0.6,1.9,0.6  c0.6,0,0.8-0.2,0.8-0.5l0,0c0-0.4-0.7-0.6-1.5-0.8c-1-0.3-2.1-0.7-2.1-2.1l0,0c0-1.4,1.2-2.2,2.6-2.2c0.7,0,1.5,0.2,2.2,0.5  c0.3,0.1,0.5,0.4,0.5,0.7c0,0.4-0.4,0.8-0.8,0.8c-0.1,0-0.2,0-0.4-0.1c-0.6-0.3-1.1-0.4-1.5-0.4c-0.5,0-0.7,0.2-0.7,0.5l0,0  c0,0.4,0.7,0.6,1.4,0.8c1,0.3,2.1,0.8,2.1,2.1l0,0c0,1.6-1.2,2.3-2.7,2.3C253.6,55.1,252.7,54.9,251.8,54.3z"></path></g></svg>